<mxfile host="app.diagrams.net" agent="Mozilla/5.0 (Windows NT 10.0; Win64; x64) AppleWebKit/537.36 (KHTML, like Gecko) Chrome/131.0.0.0 Safari/537.36" version="25.0.1">
  <diagram name="Страница — 1" id="VDGA9a0BaAJUwCVrKMF7">
    <mxGraphModel dx="791" dy="412" grid="1" gridSize="10" guides="1" tooltips="1" connect="1" arrows="1" fold="1" page="1" pageScale="1" pageWidth="1600" pageHeight="900" math="0" shadow="0">
      <root>
        <mxCell id="0" />
        <mxCell id="1" parent="0" />
        <mxCell id="vXO_sDRfpZIIBhfiPRbG-12" style="edgeStyle=orthogonalEdgeStyle;rounded=0;orthogonalLoop=1;jettySize=auto;html=1;entryX=0;entryY=0.5;entryDx=0;entryDy=0;endArrow=classic;endFill=1;" edge="1" parent="1" source="vXO_sDRfpZIIBhfiPRbG-1" target="vXO_sDRfpZIIBhfiPRbG-11">
          <mxGeometry relative="1" as="geometry" />
        </mxCell>
        <mxCell id="vXO_sDRfpZIIBhfiPRbG-1" value="&lt;font style=&quot;font-size: 25px;&quot;&gt;Написання базового коду&lt;br&gt;&lt;/font&gt;&lt;div&gt;&lt;div style=&quot;text-align: left;&quot;&gt;&lt;font style=&quot;font-size: 25px;&quot;&gt;&lt;br&gt;&lt;/font&gt;&lt;/div&gt;&lt;div style=&quot;text-align: left;&quot;&gt;&lt;span style=&quot;background-color: initial;&quot;&gt;&lt;font style=&quot;font-size: 25px;&quot;&gt;&amp;nbsp; &amp;nbsp; &amp;nbsp; &amp;nbsp; &amp;nbsp; &amp;nbsp; &amp;nbsp; &amp;nbsp; &amp;nbsp; &amp;nbsp; &amp;nbsp; &amp;nbsp; &amp;nbsp; &amp;nbsp; &amp;nbsp; &amp;nbsp; &amp;nbsp; &amp;nbsp; &amp;nbsp; &amp;nbsp;&lt;/font&gt;&lt;font style=&quot;font-size: 15px;&quot;&gt;2.1.1&lt;/font&gt;&lt;/span&gt;&lt;/div&gt;&lt;/div&gt;" style="rounded=0;whiteSpace=wrap;html=1;" vertex="1" parent="1">
          <mxGeometry x="160" y="180" width="330" height="100" as="geometry" />
        </mxCell>
        <mxCell id="vXO_sDRfpZIIBhfiPRbG-24" style="edgeStyle=orthogonalEdgeStyle;rounded=0;orthogonalLoop=1;jettySize=auto;html=1;entryX=0.75;entryY=1;entryDx=0;entryDy=0;" edge="1" parent="1" source="vXO_sDRfpZIIBhfiPRbG-2" target="vXO_sDRfpZIIBhfiPRbG-1">
          <mxGeometry relative="1" as="geometry">
            <Array as="points">
              <mxPoint x="830" y="490" />
              <mxPoint x="408" y="490" />
            </Array>
          </mxGeometry>
        </mxCell>
        <mxCell id="vXO_sDRfpZIIBhfiPRbG-25" style="edgeStyle=orthogonalEdgeStyle;rounded=0;orthogonalLoop=1;jettySize=auto;html=1;entryX=0.75;entryY=1;entryDx=0;entryDy=0;" edge="1" parent="1" source="vXO_sDRfpZIIBhfiPRbG-2" target="vXO_sDRfpZIIBhfiPRbG-9">
          <mxGeometry relative="1" as="geometry">
            <Array as="points">
              <mxPoint x="830" y="680" />
              <mxPoint x="1048" y="680" />
            </Array>
          </mxGeometry>
        </mxCell>
        <mxCell id="vXO_sDRfpZIIBhfiPRbG-2" value="&lt;font style=&quot;font-size: 20px;&quot;&gt;Програмісти&lt;/font&gt;" style="text;html=1;align=center;verticalAlign=middle;resizable=0;points=[];autosize=1;strokeColor=none;fillColor=none;" vertex="1" parent="1">
          <mxGeometry x="760" y="860" width="140" height="40" as="geometry" />
        </mxCell>
        <mxCell id="vXO_sDRfpZIIBhfiPRbG-5" style="edgeStyle=orthogonalEdgeStyle;rounded=0;orthogonalLoop=1;jettySize=auto;html=1;" edge="1" parent="1" source="vXO_sDRfpZIIBhfiPRbG-3">
          <mxGeometry relative="1" as="geometry">
            <mxPoint x="160" y="200" as="targetPoint" />
            <Array as="points">
              <mxPoint x="100" y="200" />
              <mxPoint x="160" y="200" />
            </Array>
          </mxGeometry>
        </mxCell>
        <mxCell id="vXO_sDRfpZIIBhfiPRbG-3" value="&lt;font style=&quot;font-size: 20px;&quot;&gt;Архітектурний проєкт&lt;/font&gt;" style="text;html=1;align=center;verticalAlign=middle;resizable=0;points=[];autosize=1;strokeColor=none;fillColor=none;" vertex="1" parent="1">
          <mxGeometry y="70" width="220" height="40" as="geometry" />
        </mxCell>
        <mxCell id="vXO_sDRfpZIIBhfiPRbG-6" style="edgeStyle=orthogonalEdgeStyle;rounded=0;orthogonalLoop=1;jettySize=auto;html=1;entryX=0;entryY=0.75;entryDx=0;entryDy=0;" edge="1" parent="1" source="vXO_sDRfpZIIBhfiPRbG-4" target="vXO_sDRfpZIIBhfiPRbG-1">
          <mxGeometry relative="1" as="geometry">
            <mxPoint x="140" y="210" as="targetPoint" />
            <Array as="points">
              <mxPoint x="100" y="255" />
            </Array>
          </mxGeometry>
        </mxCell>
        <mxCell id="vXO_sDRfpZIIBhfiPRbG-10" style="edgeStyle=orthogonalEdgeStyle;rounded=0;orthogonalLoop=1;jettySize=auto;html=1;entryX=0;entryY=0.75;entryDx=0;entryDy=0;" edge="1" parent="1" source="vXO_sDRfpZIIBhfiPRbG-4" target="vXO_sDRfpZIIBhfiPRbG-9">
          <mxGeometry relative="1" as="geometry">
            <Array as="points">
              <mxPoint x="100" y="325" />
            </Array>
          </mxGeometry>
        </mxCell>
        <mxCell id="vXO_sDRfpZIIBhfiPRbG-4" value="&lt;font style=&quot;font-size: 20px;&quot;&gt;Специфікація вимог&lt;/font&gt;" style="text;html=1;align=center;verticalAlign=middle;resizable=0;points=[];autosize=1;strokeColor=none;fillColor=none;" vertex="1" parent="1">
          <mxGeometry y="580" width="210" height="40" as="geometry" />
        </mxCell>
        <mxCell id="vXO_sDRfpZIIBhfiPRbG-22" style="edgeStyle=orthogonalEdgeStyle;rounded=0;orthogonalLoop=1;jettySize=auto;html=1;entryX=0.25;entryY=1;entryDx=0;entryDy=0;" edge="1" parent="1" source="vXO_sDRfpZIIBhfiPRbG-7" target="vXO_sDRfpZIIBhfiPRbG-1">
          <mxGeometry relative="1" as="geometry">
            <Array as="points">
              <mxPoint x="595" y="570" />
              <mxPoint x="242" y="570" />
            </Array>
          </mxGeometry>
        </mxCell>
        <mxCell id="vXO_sDRfpZIIBhfiPRbG-23" style="edgeStyle=orthogonalEdgeStyle;rounded=0;orthogonalLoop=1;jettySize=auto;html=1;entryX=0.25;entryY=1;entryDx=0;entryDy=0;" edge="1" parent="1" source="vXO_sDRfpZIIBhfiPRbG-7" target="vXO_sDRfpZIIBhfiPRbG-9">
          <mxGeometry relative="1" as="geometry">
            <Array as="points">
              <mxPoint x="595" y="570" />
              <mxPoint x="882" y="570" />
            </Array>
          </mxGeometry>
        </mxCell>
        <mxCell id="vXO_sDRfpZIIBhfiPRbG-7" value="&lt;font style=&quot;font-size: 20px;&quot;&gt;Середовище розробки&lt;/font&gt;" style="text;html=1;align=center;verticalAlign=middle;resizable=0;points=[];autosize=1;strokeColor=none;fillColor=none;" vertex="1" parent="1">
          <mxGeometry x="480" y="860" width="230" height="40" as="geometry" />
        </mxCell>
        <mxCell id="vXO_sDRfpZIIBhfiPRbG-9" value="&lt;font style=&quot;font-size: 25px;&quot;&gt;Оптимізація і рефакторинг&lt;br&gt;&lt;/font&gt;&lt;div&gt;&lt;div style=&quot;text-align: left;&quot;&gt;&lt;font style=&quot;font-size: 25px;&quot;&gt;&lt;br&gt;&lt;/font&gt;&lt;/div&gt;&lt;div style=&quot;text-align: left;&quot;&gt;&lt;span style=&quot;background-color: initial;&quot;&gt;&lt;font style=&quot;font-size: 25px;&quot;&gt;&amp;nbsp; &amp;nbsp; &amp;nbsp; &amp;nbsp; &amp;nbsp; &amp;nbsp; &amp;nbsp; &amp;nbsp; &amp;nbsp; &amp;nbsp; &amp;nbsp; &amp;nbsp; &amp;nbsp; &amp;nbsp; &amp;nbsp; &amp;nbsp; &amp;nbsp; &amp;nbsp; &amp;nbsp; &amp;nbsp;&lt;/font&gt;&lt;font style=&quot;font-size: 15px;&quot;&gt;2.1.2&lt;/font&gt;&lt;/span&gt;&lt;/div&gt;&lt;/div&gt;" style="rounded=0;whiteSpace=wrap;html=1;" vertex="1" parent="1">
          <mxGeometry x="800" y="250" width="330" height="100" as="geometry" />
        </mxCell>
        <mxCell id="vXO_sDRfpZIIBhfiPRbG-13" style="edgeStyle=orthogonalEdgeStyle;rounded=0;orthogonalLoop=1;jettySize=auto;html=1;entryX=0;entryY=0.25;entryDx=0;entryDy=0;" edge="1" parent="1" source="vXO_sDRfpZIIBhfiPRbG-11" target="vXO_sDRfpZIIBhfiPRbG-9">
          <mxGeometry relative="1" as="geometry">
            <Array as="points">
              <mxPoint x="720" y="230" />
              <mxPoint x="720" y="275" />
            </Array>
          </mxGeometry>
        </mxCell>
        <mxCell id="vXO_sDRfpZIIBhfiPRbG-11" value="&lt;font style=&quot;font-size: 20px;&quot;&gt;Початковий код&lt;/font&gt;" style="text;whiteSpace=wrap;html=1;" vertex="1" parent="1">
          <mxGeometry x="560" y="210" width="150" height="40" as="geometry" />
        </mxCell>
        <mxCell id="vXO_sDRfpZIIBhfiPRbG-18" style="edgeStyle=orthogonalEdgeStyle;rounded=0;orthogonalLoop=1;jettySize=auto;html=1;entryX=0.25;entryY=0;entryDx=0;entryDy=0;" edge="1" parent="1" source="vXO_sDRfpZIIBhfiPRbG-14" target="vXO_sDRfpZIIBhfiPRbG-1">
          <mxGeometry relative="1" as="geometry">
            <Array as="points">
              <mxPoint x="645" y="60" />
              <mxPoint x="243" y="60" />
            </Array>
          </mxGeometry>
        </mxCell>
        <mxCell id="vXO_sDRfpZIIBhfiPRbG-19" style="edgeStyle=orthogonalEdgeStyle;rounded=0;orthogonalLoop=1;jettySize=auto;html=1;" edge="1" parent="1" source="vXO_sDRfpZIIBhfiPRbG-14">
          <mxGeometry relative="1" as="geometry">
            <mxPoint x="880" y="250" as="targetPoint" />
            <Array as="points">
              <mxPoint x="645" y="110" />
              <mxPoint x="880" y="110" />
              <mxPoint x="880" y="250" />
            </Array>
          </mxGeometry>
        </mxCell>
        <mxCell id="vXO_sDRfpZIIBhfiPRbG-14" value="&lt;font style=&quot;font-size: 20px;&quot;&gt;Графік виконання&lt;/font&gt;" style="text;html=1;align=center;verticalAlign=middle;resizable=0;points=[];autosize=1;strokeColor=none;fillColor=none;" vertex="1" parent="1">
          <mxGeometry x="550" width="190" height="40" as="geometry" />
        </mxCell>
        <mxCell id="vXO_sDRfpZIIBhfiPRbG-20" style="edgeStyle=orthogonalEdgeStyle;rounded=0;orthogonalLoop=1;jettySize=auto;html=1;entryX=0.75;entryY=0;entryDx=0;entryDy=0;" edge="1" parent="1" source="vXO_sDRfpZIIBhfiPRbG-15" target="vXO_sDRfpZIIBhfiPRbG-1">
          <mxGeometry relative="1" as="geometry">
            <Array as="points">
              <mxPoint x="995" y="80" />
              <mxPoint x="408" y="80" />
            </Array>
          </mxGeometry>
        </mxCell>
        <mxCell id="vXO_sDRfpZIIBhfiPRbG-21" style="edgeStyle=orthogonalEdgeStyle;rounded=0;orthogonalLoop=1;jettySize=auto;html=1;entryX=0.5;entryY=0;entryDx=0;entryDy=0;" edge="1" parent="1" source="vXO_sDRfpZIIBhfiPRbG-15" target="vXO_sDRfpZIIBhfiPRbG-9">
          <mxGeometry relative="1" as="geometry">
            <Array as="points">
              <mxPoint x="995" y="145" />
              <mxPoint x="965" y="145" />
            </Array>
          </mxGeometry>
        </mxCell>
        <mxCell id="vXO_sDRfpZIIBhfiPRbG-15" value="&lt;font style=&quot;font-size: 20px;&quot;&gt;Стандарти розробки&lt;/font&gt;" style="text;html=1;align=center;verticalAlign=middle;resizable=0;points=[];autosize=1;strokeColor=none;fillColor=none;" vertex="1" parent="1">
          <mxGeometry x="890" width="210" height="40" as="geometry" />
        </mxCell>
        <mxCell id="vXO_sDRfpZIIBhfiPRbG-26" value="&lt;font style=&quot;font-size: 20px;&quot;&gt;Оптимізований та&amp;nbsp;&lt;/font&gt;&lt;span style=&quot;font-size: 20px; background-color: initial;&quot;&gt;читабельний&lt;/span&gt;&lt;div&gt;&lt;div&gt;&lt;font style=&quot;font-size: 20px;&quot;&gt;код&lt;/font&gt;&lt;/div&gt;&lt;/div&gt;" style="text;html=1;align=center;verticalAlign=middle;resizable=0;points=[];autosize=1;strokeColor=none;fillColor=none;" vertex="1" parent="1">
          <mxGeometry x="1200" y="270" width="310" height="60" as="geometry" />
        </mxCell>
        <mxCell id="vXO_sDRfpZIIBhfiPRbG-27" style="edgeStyle=orthogonalEdgeStyle;rounded=0;orthogonalLoop=1;jettySize=auto;html=1;" edge="1" parent="1" source="vXO_sDRfpZIIBhfiPRbG-9">
          <mxGeometry relative="1" as="geometry">
            <mxPoint x="1196" y="300" as="targetPoint" />
          </mxGeometry>
        </mxCell>
        <mxCell id="vXO_sDRfpZIIBhfiPRbG-29" style="edgeStyle=orthogonalEdgeStyle;rounded=0;orthogonalLoop=1;jettySize=auto;html=1;entryX=0.75;entryY=0;entryDx=0;entryDy=0;" edge="1" parent="1" source="vXO_sDRfpZIIBhfiPRbG-28" target="vXO_sDRfpZIIBhfiPRbG-9">
          <mxGeometry relative="1" as="geometry" />
        </mxCell>
        <mxCell id="vXO_sDRfpZIIBhfiPRbG-28" value="&lt;font style=&quot;font-size: 20px;&quot;&gt;Рекомендації написання коду&lt;/font&gt;" style="text;html=1;align=center;verticalAlign=middle;resizable=0;points=[];autosize=1;strokeColor=none;fillColor=none;" vertex="1" parent="1">
          <mxGeometry x="1110" width="300" height="40" as="geometry" />
        </mxCell>
      </root>
    </mxGraphModel>
  </diagram>
</mxfile>
